{
  "accessors": [
    {
      "bufferView": 2,
      "componentType": 5126,
      "count": 24010,
      "max": [
        0.0632999986410141,
        0.14307700097560883,
        0.09871699661016464
      ],
      "min": [
        -0.05408899858593941,
        -0.17844200134277344,
        -0.05525600165128708
      ],
      "type": "VEC3"
    },
    {
      "bufferView": 2,
      "byteOffset": 288120,
      "componentType": 5126,
      "count": 24010,
      "max": [
        0.9999934434890747,
        0.9999802112579346,
        0.9999939203262329
      ],
      "min": [
        -0.9999977350234985,
        -0.9993466734886169,
        -0.9999964237213135
      ],
      "type": "VEC3"
    },
    {
      "bufferView": 3,
      "componentType": 5126,
      "count": 24010,
      "max": [
        1.0,
        0.9999858140945435,
        0.999999463558197,
        1.0
      ],
      "min": [
        -0.999972939491272,
        -0.9999586343765259,
        -0.9999964833259583,
        -1.0
      ],
      "type": "VEC4"
    },
    {
      "bufferView": 1,
      "componentType": 5126,
      "count": 24010,
      "max": [
        0.99338299036026,
        0.9824280142784119
      ],
      "min": [
        0.010885999538004398,
        0.006457999814301729
      ],
      "type": "VEC2"
    },
    {
      "bufferView": 0,
      "componentType": 5125,
      "count": 136704,
      "type": "SCALAR"
    }
  ],
  "asset": {
    "extras": {
      "author": "StudioAira! (https://sketchfab.com/studioaira)",
      "license": "CC-BY-NC-4.0 (http://creativecommons.org/licenses/by-nc/4.0/)",
      "source": "https://sketchfab.com/3d-models/nike-air-max-90-f1d3988d09dc47e88cb3e08c104c5461",
      "title": "Nike Air Max 90"
    },
    "generator": "Sketchfab-13.90.0",
    "version": "2.0"
  },
  "bufferViews": [
    {
      "buffer": 0,
      "byteLength": 546816,
      "name": "floatBufferViews",
      "target": 34963
    },
    {
      "buffer": 0,
      "byteLength": 192080,
      "byteOffset": 546816,
      "byteStride": 8,
      "name": "floatBufferViews",
      "target": 34962
    },
    {
      "buffer": 0,
      "byteLength": 576240,
      "byteOffset": 738896,
      "byteStride": 12,
      "name": "floatBufferViews",
      "target": 34962
    },
    {
      "buffer": 0,
      "byteLength": 384160,
      "byteOffset": 1315136,
      "byteStride": 16,
      "name": "floatBufferViews",
      "target": 34962
    }
  ],
  "buffers": [
    {
      "byteLength": 1699296,
      "uri": "scene.bin"
    }
  ],
  "images": [
    {
      "uri": "textures/Material.001_baseColor.jpeg"
    },
    {
      "uri": "textures/Material.001_metallicRoughness.png"
    },
    {
      "uri": "textures/Material.001_normal.jpeg"
    }
  ],
  "materials": [
    {
      "doubleSided": true,
      "name": "Material.001",
      "normalTexture": {
        "index": 2
      },
      "pbrMetallicRoughness": {
        "baseColorTexture": {
          "index": 0
        },
        "metallicFactor": 0.0,
        "metallicRoughnessTexture": {
          "index": 1
        }
      }
    }
  ],
  "meshes": [
    {
      "name": "Object_0",
      "primitives": [
        {
          "attributes": {
            "NORMAL": 1,
            "POSITION": 0,
            "TANGENT": 2,
            "TEXCOORD_0": 3
          },
          "indices": 4,
          "material": 0,
          "mode": 4
        }
      ]
    }
  ],
  "nodes": [
    {
      "children": [
        1
      ],
      "matrix": [
        0.7662248015403748,
        0.0,
        0.0,
        0.0,
        0.0,
        1.7013608334179303e-16,
        -0.7662248015403748,
        0.0,
        0.0,
        0.7662248015403748,
        1.7013608334179303e-16,
        0.0,
        0.0,
        0.0,
        0.0,
        1.0
      ],
      "name": "Sketchfab_model"
    },
    {
      "children": [
        2
      ],
      "name": "02_Airmax_Sketchfab.obj.cleaner.materialmerger.gles"
    },
    {
      "mesh": 0,
      "name": "Object_2"
    }
  ],
  "samplers": [
    {
      "magFilter": 9729,
      "minFilter": 9987,
      "wrapS": 10497,
      "wrapT": 10497
    }
  ],
  "scene": 0,
  "scenes": [
    {
      "name": "Sketchfab_Scene",
      "nodes": [
        0
      ]
    }
  ],
  "textures": [
    {
      "sampler": 0,
      "source": 0
    },
    {
      "sampler": 0,
      "source": 1
    },
    {
      "sampler": 0,
      "source": 2
    }
  ]
}
