{
  "accessors": [
    {
      "bufferView": 2,
      "componentType": 5126,
      "count": 6978,
      "max": [
        1.469035029411316,
        0.9769420027732849,
        2.8445539474487305
      ],
      "min": [
        1.316059947013855,
        0.370932012796402,
        1.9016649723052979
      ],
      "type": "VEC3"
    },
    {
      "bufferView": 2,
      "byteOffset": 83736,
      "componentType": 5126,
      "count": 6978,
      "max": [
        0.9999994039535522,
        0.9993959665298462,
        0.9996972680091858
      ],
      "min": [
        -0.9999502897262573,
        -0.9999629259109497,
        -0.9995438456535339
      ],
      "type": "VEC3"
    },
    {
      "bufferView": 1,
      "componentType": 5126,
      "count": 6978,
      "max": [
        1.0,
        1.0
      ],
      "min": [
        0.0,
        0.0
      ],
      "type": "VEC2"
    },
    {
      "bufferView": 0,
      "componentType": 5125,
      "count": 41856,
      "type": "SCALAR"
    },
    {
      "bufferView": 2,
      "byteOffset": 167472,
      "componentType": 5126,
      "count": 2665,
      "max": [
        1.4571330547332764,
        0.8894060254096985,
        2.8256189823150635
      ],
      "min": [
        -1.413601040840149,
        -2.9582090377807617,
        0.22470800578594208
      ],
      "type": "VEC3"
    },
    {
      "bufferView": 2,
      "byteOffset": 199452,
      "componentType": 5126,
      "count": 2665,
      "max": [
        0.999373197555542,
        0.9986186027526855,
        0.9997557997703552
      ],
      "min": [
        -0.9986689686775208,
        -0.9992227554321289,
        -0.999664843082428
      ],
      "type": "VEC3"
    },
    {
      "bufferView": 1,
      "byteOffset": 55824,
      "componentType": 5126,
      "count": 2665,
      "max": [
        1.0,
        1.0
      ],
      "min": [
        0.0,
        0.0
      ],
      "type": "VEC2"
    },
    {
      "bufferView": 0,
      "byteOffset": 167424,
      "componentType": 5125,
      "count": 14688,
      "type": "SCALAR"
    },
    {
      "bufferView": 2,
      "byteOffset": 231432,
      "componentType": 5126,
      "count": 543,
      "max": [
        -1.7056770324707031,
        0.8710929751396179,
        2.167915105819702
      ],
      "min": [
        -1.7621560096740723,
        0.49990400671958923,
        2.0225040912628174
      ],
      "type": "VEC3"
    },
    {
      "bufferView": 2,
      "byteOffset": 237948,
      "componentType": 5126,
      "count": 543,
      "max": [
        0.9836480021476746,
        0.12010585516691208,
        0.1343047320842743
      ],
      "min": [
        -0.9836347103118896,
        -0.12010423839092255,
        -0.13440454006195068
      ],
      "type": "VEC3"
    },
    {
      "bufferView": 1,
      "byteOffset": 77144,
      "componentType": 5126,
      "count": 543,
      "max": [
        0.0,
        0.0
      ],
      "min": [
        0.0,
        0.0
      ],
      "type": "VEC2"
    },
    {
      "bufferView": 0,
      "byteOffset": 226176,
      "componentType": 5125,
      "count": 1146,
      "type": "SCALAR"
    },
    {
      "bufferView": 2,
      "byteOffset": 244464,
      "componentType": 5126,
      "count": 4258,
      "max": [
        -1.2294139862060547,
        1.0313769578933716,
        2.6780331134796143
      ],
      "min": [
        -1.6900620460510254,
        0.11280100047588348,
        1.6199560165405273
      ],
      "type": "VEC3"
    },
    {
      "bufferView": 2,
      "byteOffset": 295560,
      "componentType": 5126,
      "count": 4258,
      "max": [
        0.9998231530189514,
        0.9994615912437439,
        0.9995625615119934
      ],
      "min": [
        -0.9998243451118469,
        -0.9998205304145813,
        -0.9999465942382813
      ],
      "type": "VEC3"
    },
    {
      "bufferView": 1,
      "byteOffset": 81488,
      "componentType": 5126,
      "count": 4258,
      "max": [
        0.0,
        0.0
      ],
      "min": [
        0.0,
        0.0
      ],
      "type": "VEC2"
    },
    {
      "bufferView": 0,
      "byteOffset": 230760,
      "componentType": 5125,
      "count": 25536,
      "type": "SCALAR"
    },
    {
      "bufferView": 2,
      "byteOffset": 346656,
      "componentType": 5126,
      "count": 33855,
      "max": [
        1.7996220588684082,
        4.3713860511779785,
        3.632638931274414
      ],
      "min": [
        -2.040992021560669,
        -5.889193058013916,
        -2.4281980991363525
      ],
      "type": "VEC3"
    },
    {
      "bufferView": 2,
      "byteOffset": 752916,
      "componentType": 5126,
      "count": 33855,
      "max": [
        0.9999964237213135,
        0.9999784231185913,
        0.9998281598091125
      ],
      "min": [
        -0.9999997615814209,
        -0.9992605447769165,
        -0.9999905824661255
      ],
      "type": "VEC3"
    },
    {
      "bufferView": 1,
      "byteOffset": 115552,
      "componentType": 5126,
      "count": 33855,
      "max": [
        0.997402012348175,
        0.9974430203437805
      ],
      "min": [
        0.0006200000061653554,
        0.0006559999892488122
      ],
      "type": "VEC2"
    },
    {
      "bufferView": 0,
      "byteOffset": 332904,
      "componentType": 5125,
      "count": 168216,
      "type": "SCALAR"
    },
    {
      "bufferView": 2,
      "byteOffset": 1159176,
      "componentType": 5126,
      "count": 610,
      "max": [
        -1.1454919576644897,
        3.2138519287109375,
        0.6371359825134277
      ],
      "min": [
        -1.2199000120162964,
        3.132688045501709,
        0.5110059976577759
      ],
      "type": "VEC3"
    },
    {
      "bufferView": 2,
      "byteOffset": 1166496,
      "componentType": 5126,
      "count": 610,
      "max": [
        0.9853460192680359,
        0.9846141934394836,
        0.9929713010787964
      ],
      "min": [
        -0.9783509969711304,
        -0.9839162230491638,
        -0.9993014335632324
      ],
      "type": "VEC3"
    },
    {
      "bufferView": 1,
      "byteOffset": 386392,
      "componentType": 5126,
      "count": 610,
      "max": [
        0.0,
        0.0
      ],
      "min": [
        0.0,
        0.0
      ],
      "type": "VEC2"
    },
    {
      "bufferView": 0,
      "byteOffset": 1005768,
      "componentType": 5125,
      "count": 3648,
      "type": "SCALAR"
    },
    {
      "bufferView": 2,
      "byteOffset": 1173816,
      "componentType": 5126,
      "count": 610,
      "max": [
        1.557541012763977,
        2.53574800491333,
        0.4781219959259033
      ],
      "min": [
        1.4897019863128662,
        2.390753984451294,
        0.3952299952507019
      ],
      "type": "VEC3"
    },
    {
      "bufferView": 2,
      "byteOffset": 1181136,
      "componentType": 5126,
      "count": 610,
      "max": [
        0.9970638751983643,
        0.9876254796981812,
        0.9980708360671997
      ],
      "min": [
        -0.9963504672050476,
        -0.9742223024368286,
        -0.9999725818634033
      ],
      "type": "VEC3"
    },
    {
      "bufferView": 1,
      "byteOffset": 391272,
      "componentType": 5126,
      "count": 610,
      "max": [
        0.0,
        0.0
      ],
      "min": [
        0.0,
        0.0
      ],
      "type": "VEC2"
    },
    {
      "bufferView": 0,
      "byteOffset": 1020360,
      "componentType": 5125,
      "count": 3648,
      "type": "SCALAR"
    },
    {
      "bufferView": 2,
      "byteOffset": 1188456,
      "componentType": 5126,
      "count": 23006,
      "max": [
        -0.8963429927825928,
        3.641535997390747,
        0.7761930227279663
      ],
      "min": [
        -1.5565769672393799,
        2.1676270961761475,
        -0.12020699679851532
      ],
      "type": "VEC3"
    },
    {
      "bufferView": 2,
      "byteOffset": 1464528,
      "componentType": 5126,
      "count": 23006,
      "max": [
        0.9998773336410522,
        0.9997139573097229,
        0.9998192191123962
      ],
      "min": [
        -0.9999078512191772,
        -0.9998595714569092,
        -0.99985671043396
      ],
      "type": "VEC3"
    },
    {
      "bufferView": 1,
      "byteOffset": 396152,
      "componentType": 5126,
      "count": 23006,
      "max": [
        1.0,
        1.0001310110092163
      ],
      "min": [
        0.0,
        0.0
      ],
      "type": "VEC2"
    },
    {
      "bufferView": 0,
      "byteOffset": 1034952,
      "componentType": 5125,
      "count": 137952,
      "type": "SCALAR"
    },
    {
      "bufferView": 2,
      "byteOffset": 1740600,
      "componentType": 5126,
      "count": 22142,
      "max": [
        1.586874008178711,
        3.6381618976593018,
        0.8607379794120789
      ],
      "min": [
        1.1622459888458252,
        1.9873290061950684,
        0.040734000504016876
      ],
      "type": "VEC3"
    },
    {
      "bufferView": 2,
      "byteOffset": 2006304,
      "componentType": 5126,
      "count": 22142,
      "max": [
        0.9999473094940186,
        0.9997269511222839,
        0.999818742275238
      ],
      "min": [
        -0.9999992847442627,
        -0.9999790191650391,
        -0.9999409914016724
      ],
      "type": "VEC3"
    },
    {
      "bufferView": 1,
      "byteOffset": 580200,
      "componentType": 5126,
      "count": 22142,
      "max": [
        1.0,
        1.0
      ],
      "min": [
        0.0,
        0.0
      ],
      "type": "VEC2"
    },
    {
      "bufferView": 0,
      "byteOffset": 1586760,
      "componentType": 5125,
      "count": 132768,
      "type": "SCALAR"
    },
    {
      "bufferView": 2,
      "byteOffset": 2272008,
      "componentType": 5126,
      "count": 24,
      "max": [
        -1.639477014541626,
        1.0420490503311157,
        2.4441099166870117
      ],
      "min": [
        -1.7882369756698608,
        0.37616100907325745,
        1.8524030447006226
      ],
      "type": "VEC3"
    },
    {
      "bufferView": 2,
      "byteOffset": 2272296,
      "componentType": 5126,
      "count": 24,
      "max": [
        0.810418963432312,
        0.8750741481781006,
        0.8601151704788208
      ],
      "min": [
        -0.9597614407539368,
        -0.9593808054924011,
        -0.7756998538970947
      ],
      "type": "VEC3"
    },
    {
      "bufferView": 1,
      "byteOffset": 757336,
      "componentType": 5126,
      "count": 24,
      "max": [
        0.0,
        0.0
      ],
      "min": [
        0.0,
        0.0
      ],
      "type": "VEC2"
    },
    {
      "bufferView": 0,
      "byteOffset": 2117832,
      "componentType": 5125,
      "count": 132,
      "type": "SCALAR"
    },
    {
      "bufferView": 2,
      "byteOffset": 2272584,
      "componentType": 5126,
      "count": 8664,
      "max": [
        1.088250994682312,
        -0.7293400168418884,
        1.5405550003051758
      ],
      "min": [
        -1.1567059755325317,
        -1.5719480514526367,
        0.5181879997253418
      ],
      "type": "VEC3"
    },
    {
      "bufferView": 2,
      "byteOffset": 2376552,
      "componentType": 5126,
      "count": 8664,
      "max": [
        0.9999734163284302,
        0.997259259223938,
        0.9974969029426575
      ],
      "min": [
        -0.9999679327011108,
        -0.9998958110809326,
        -0.9967247247695923
      ],
      "type": "VEC3"
    },
    {
      "bufferView": 1,
      "byteOffset": 757528,
      "componentType": 5126,
      "count": 8664,
      "max": [
        1.0,
        1.0
      ],
      "min": [
        0.5,
        0.0
      ],
      "type": "VEC2"
    },
    {
      "bufferView": 0,
      "byteOffset": 2118360,
      "componentType": 5125,
      "count": 51072,
      "type": "SCALAR"
    },
    {
      "bufferView": 2,
      "byteOffset": 2480520,
      "componentType": 5126,
      "count": 3284,
      "max": [
        -1.4720350503921509,
        1.189136028289795,
        2.611572027206421
      ],
      "min": [
        -1.815405011177063,
        0.2375890016555786,
        1.7453759908676147
      ],
      "type": "VEC3"
    },
    {
      "bufferView": 2,
      "byteOffset": 2519928,
      "componentType": 5126,
      "count": 3284,
      "max": [
        0.9994693398475647,
        0.9985398650169373,
        0.9999465942382813
      ],
      "min": [
        -0.9992281198501587,
        -0.999743640422821,
        -0.9994332790374756
      ],
      "type": "VEC3"
    },
    {
      "bufferView": 1,
      "byteOffset": 826840,
      "componentType": 5126,
      "count": 3284,
      "max": [
        0.0,
        0.0
      ],
      "min": [
        0.0,
        0.0
      ],
      "type": "VEC2"
    },
    {
      "bufferView": 0,
      "byteOffset": 2322648,
      "componentType": 5125,
      "count": 19620,
      "type": "SCALAR"
    },
    {
      "bufferView": 2,
      "byteOffset": 2559336,
      "componentType": 5126,
      "count": 13201,
      "max": [
        -1.3565690517425537,
        1.2324140071868896,
        2.6026599407196045
      ],
      "min": [
        -1.8011850118637085,
        0.22825099527835846,
        1.600234031677246
      ],
      "type": "VEC3"
    },
    {
      "bufferView": 2,
      "byteOffset": 2717748,
      "componentType": 5126,
      "count": 13201,
      "max": [
        0.9999812841415405,
        0.9980604648590088,
        0.9951372742652893
      ],
      "min": [
        -0.9922494888305664,
        -0.9963462948799133,
        -0.9986978769302368
      ],
      "type": "VEC3"
    },
    {
      "bufferView": 1,
      "byteOffset": 853112,
      "componentType": 5126,
      "count": 13201,
      "max": [
        0.0,
        0.0
      ],
      "min": [
        0.0,
        0.0
      ],
      "type": "VEC2"
    },
    {
      "bufferView": 0,
      "byteOffset": 2401128,
      "componentType": 5125,
      "count": 74379,
      "type": "SCALAR"
    }
  ],
  "asset": {
    "extras": {
      "author": "unikhan (https://sketchfab.com/unikhan)",
      "license": "CC-BY-4.0 (http://creativecommons.org/licenses/by/4.0/)",
      "source": "https://sketchfab.com/3d-models/ug-32-7fefaa0869f14e11ab4f4f0b5bbcfb71",
      "title": "UG-32"
    },
    "generator": "Sketchfab-15.31.0",
    "version": "2.0"
  },
  "bufferViews": [
    {
      "buffer": 0,
      "byteLength": 2698644,
      "name": "floatBufferViews",
      "target": 34963
    },
    {
      "buffer": 0,
      "byteLength": 958720,
      "byteOffset": 2698644,
      "byteStride": 8,
      "name": "floatBufferViews",
      "target": 34962
    },
    {
      "buffer": 0,
      "byteLength": 2876160,
      "byteOffset": 3657364,
      "byteStride": 12,
      "name": "floatBufferViews",
      "target": 34962
    }
  ],
  "buffers": [
    {
      "byteLength": 6533524,
      "uri": "scene.bin"
    }
  ],
  "images": [
    {
      "uri": "textures/material_6_baseColor.png"
    }
  ],
  "materials": [
    {
      "doubleSided": true,
      "name": "Material.001",
      "pbrMetallicRoughness": {
        "baseColorFactor": [
          0.003322,
          0.005254,
          0.012374,
          1.0
        ],
        "metallicFactor": 0.0,
        "roughnessFactor": 0.8917131614666003
      }
    },
    {
      "doubleSided": true,
      "name": "Material.002",
      "pbrMetallicRoughness": {
        "baseColorFactor": [
          0.0,
          0.0,
          0.0,
          1.0
        ],
        "metallicFactor": 0.0,
        "roughnessFactor": 0.8011823178082373
      }
    },
    {
      "doubleSided": true,
      "name": "black01",
      "pbrMetallicRoughness": {
        "baseColorFactor": [
          0.0,
          0.0,
          0.0,
          1.0
        ],
        "metallicFactor": 0.19961965598371345,
        "roughnessFactor": 0.8377066409795773
      }
    },
    {
      "doubleSided": true,
      "name": "material",
      "pbrMetallicRoughness": {
        "baseColorFactor": [
          0.367238,
          0.367238,
          0.367238,
          1.0
        ],
        "metallicFactor": 0.0
      }
    },
    {
      "doubleSided": true,
      "name": "body.001",
      "pbrMetallicRoughness": {
        "baseColorFactor": [
          0.0,
          0.0,
          0.0,
          1.0
        ],
        "metallicFactor": 0.3520010727651741,
        "roughnessFactor": 0.9667934669459017
      }
    },
    {
      "doubleSided": true,
      "name": "body.002",
      "pbrMetallicRoughness": {
        "baseColorFactor": [
          0.0,
          0.0,
          0.0,
          1.0
        ],
        "metallicFactor": 0.0,
        "roughnessFactor": 0.9667934669459017
      }
    },
    {
      "doubleSided": true,
      "name": "material_6",
      "pbrMetallicRoughness": {
        "baseColorTexture": {
          "index": 0
        },
        "metallicFactor": 0.0
      }
    },
    {
      "doubleSided": true,
      "name": "text_red",
      "pbrMetallicRoughness": {
        "baseColorFactor": [
          0.8,
          0.0,
          0.000713,
          1.0
        ],
        "metallicFactor": 0.0,
        "roughnessFactor": 0.8970116428046441
      }
    },
    {
      "doubleSided": true,
      "name": "text_red.001",
      "pbrMetallicRoughness": {
        "baseColorFactor": [
          0.8,
          0.0,
          0.000713,
          1.0
        ],
        "metallicFactor": 0.0,
        "roughnessFactor": 0.8970116428046441
      }
    },
    {
      "doubleSided": true,
      "name": "text_xhite",
      "pbrMetallicRoughness": {
        "baseColorFactor": [
          0.8,
          0.8,
          0.8,
          1.0
        ],
        "metallicFactor": 0.0,
        "roughnessFactor": 0.9405396442498639
      }
    },
    {
      "doubleSided": true,
      "name": "text_xhite.001",
      "pbrMetallicRoughness": {
        "baseColorFactor": [
          0.8,
          0.8,
          0.8,
          1.0
        ],
        "metallicFactor": 0.0,
        "roughnessFactor": 0.9405396442498639
      }
    },
    {
      "doubleSided": true,
      "name": ".001",
      "pbrMetallicRoughness": {
        "baseColorFactor": [
          0.0,
          0.0,
          0.0,
          1.0
        ],
        "metallicFactor": 0.0,
        "roughnessFactor": 0.0
      }
    }
  ],
  "meshes": [
    {
      "name": "Object_0",
      "primitives": [
        {
          "attributes": {
            "NORMAL": 1,
            "POSITION": 0,
            "TEXCOORD_0": 2
          },
          "indices": 3,
          "material": 0,
          "mode": 4
        }
      ]
    },
    {
      "name": "Object_1",
      "primitives": [
        {
          "attributes": {
            "NORMAL": 5,
            "POSITION": 4,
            "TEXCOORD_0": 6
          },
          "indices": 7,
          "material": 1,
          "mode": 4
        }
      ]
    },
    {
      "name": "Object_2",
      "primitives": [
        {
          "attributes": {
            "NORMAL": 9,
            "POSITION": 8,
            "TEXCOORD_0": 10
          },
          "indices": 11,
          "material": 3,
          "mode": 4
        }
      ]
    },
    {
      "name": "Object_3",
      "primitives": [
        {
          "attributes": {
            "NORMAL": 13,
            "POSITION": 12,
            "TEXCOORD_0": 14
          },
          "indices": 15,
          "material": 5,
          "mode": 4
        }
      ]
    },
    {
      "name": "Object_4",
      "primitives": [
        {
          "attributes": {
            "NORMAL": 17,
            "POSITION": 16,
            "TEXCOORD_0": 18
          },
          "indices": 19,
          "material": 6,
          "mode": 4
        }
      ]
    },
    {
      "name": "Object_5",
      "primitives": [
        {
          "attributes": {
            "NORMAL": 21,
            "POSITION": 20,
            "TEXCOORD_0": 22
          },
          "indices": 23,
          "material": 7,
          "mode": 4
        }
      ]
    },
    {
      "name": "Object_6",
      "primitives": [
        {
          "attributes": {
            "NORMAL": 25,
            "POSITION": 24,
            "TEXCOORD_0": 26
          },
          "indices": 27,
          "material": 8,
          "mode": 4
        }
      ]
    },
    {
      "name": "Object_7",
      "primitives": [
        {
          "attributes": {
            "NORMAL": 29,
            "POSITION": 28,
            "TEXCOORD_0": 30
          },
          "indices": 31,
          "material": 9,
          "mode": 4
        }
      ]
    },
    {
      "name": "Object_8",
      "primitives": [
        {
          "attributes": {
            "NORMAL": 33,
            "POSITION": 32,
            "TEXCOORD_0": 34
          },
          "indices": 35,
          "material": 10,
          "mode": 4
        }
      ]
    },
    {
      "name": "Object_9",
      "primitives": [
        {
          "attributes": {
            "NORMAL": 37,
            "POSITION": 36,
            "TEXCOORD_0": 38
          },
          "indices": 39,
          "material": 11,
          "mode": 4
        }
      ]
    },
    {
      "name": "Object_10",
      "primitives": [
        {
          "attributes": {
            "NORMAL": 41,
            "POSITION": 40,
            "TEXCOORD_0": 42
          },
          "indices": 43,
          "material": 2,
          "mode": 4
        }
      ]
    },
    {
      "name": "Object_11",
      "primitives": [
        {
          "attributes": {
            "NORMAL": 45,
            "POSITION": 44,
            "TEXCOORD_0": 46
          },
          "indices": 47,
          "material": 4,
          "mode": 4
        }
      ]
    },
    {
      "name": "Object_12",
      "primitives": [
        {
          "attributes": {
            "NORMAL": 49,
            "POSITION": 48,
            "TEXCOORD_0": 50
          },
          "indices": 51,
          "material": 4,
          "mode": 4
        }
      ]
    }
  ],
  "nodes": [
    {
      "children": [
        1
      ],
      "matrix": [
        1.0,
        0.0,
        0.0,
        0.0,
        0.0,
        2.220446049250313e-16,
        -1.0,
        0.0,
        0.0,
        1.0,
        2.220446049250313e-16,
        0.0,
        0.0,
        0.0,
        0.0,
        1.0
      ],
      "name": "Sketchfab_model"
    },
    {
      "children": [
        2,
        3,
        4,
        5,
        6,
        7,
        8,
        9,
        10,
        11,
        12,
        13,
        14
      ],
      "name": "UG-32.obj.cleaner.materialmerger.gles"
    },
    {
      "mesh": 0,
      "name": "Object_2"
    },
    {
      "mesh": 1,
      "name": "Object_3"
    },
    {
      "mesh": 2,
      "name": "Object_4"
    },
    {
      "mesh": 3,
      "name": "Object_5"
    },
    {
      "mesh": 4,
      "name": "Object_6"
    },
    {
      "mesh": 5,
      "name": "Object_7"
    },
    {
      "mesh": 6,
      "name": "Object_8"
    },
    {
      "mesh": 7,
      "name": "Object_9"
    },
    {
      "mesh": 8,
      "name": "Object_10"
    },
    {
      "mesh": 9,
      "name": "Object_11"
    },
    {
      "mesh": 10,
      "name": "Object_12"
    },
    {
      "mesh": 11,
      "name": "Object_13"
    },
    {
      "mesh": 12,
      "name": "Object_14"
    }
  ],
  "samplers": [
    {
      "magFilter": 9729,
      "minFilter": 9987,
      "wrapS": 10497,
      "wrapT": 10497
    }
  ],
  "scene": 0,
  "scenes": [
    {
      "name": "Sketchfab_Scene",
      "nodes": [
        0
      ]
    }
  ],
  "textures": [
    {
      "sampler": 0,
      "source": 0
    }
  ]
}
